<?xml version="1.0" standalone="no"?>
<!DOCTYPE svg PUBLIC "-//W3C//DTD SVG 20010904//EN"
 "http://www.w3.org/TR/2001/REC-SVG-20010904/DTD/svg10.dtd">
<svg version="1.0" xmlns="http://www.w3.org/2000/svg"
 width="512.000000pt" height="512.000000pt" viewBox="0 0 512.000000 512.000000"
 preserveAspectRatio="xMidYMid meet">

<g transform="translate(0.000000,512.000000) scale(0.100000,-0.100000)"
fill="#000000" stroke="none">
<path d="M590 4937 l0 -183 -70 -11 c-96 -15 -173 -55 -246 -127 -146 -147
-176 -363 -74 -540 l29 -51 -41 -81 c-33 -67 -41 -94 -45 -160 -7 -96 14 -187
58 -259 30 -47 30 -50 14 -75 -27 -42 -56 -112 -67 -164 -21 -100 7 -249 63
-327 l20 -28 -30 -53 c-79 -141 -80 -300 -3 -443 l31 -57 -29 -51 c-78 -140
-79 -299 -2 -442 l31 -57 -29 -51 c-79 -141 -79 -302 1 -445 l29 -52 -29 -53
c-155 -277 9 -617 322 -669 l67 -11 0 -274 0 -273 2103 2 c2056 3 2103 3 2141
22 53 27 104 80 130 135 l21 46 0 2355 0 2355 -21 46 c-26 55 -77 108 -130
135 -38 19 -85 19 -2141 22 l-2103 2 0 -183z m0 -552 l0 -185 -35 0 c-37 0
-153 -35 -170 -51 -15 -15 -21 -11 -41 33 -27 59 -26 178 1 233 41 83 138 152
218 154 l27 1 0 -185z m2261 81 c36 -8 102 -32 145 -54 78 -39 225 -141 253
-176 34 -41 49 -40 104 10 155 139 344 234 468 234 117 0 207 -83 243 -226 22
-85 21 -282 -2 -400 l-18 -92 80 -27 c199 -67 378 -190 432 -296 30 -61 32
-145 4 -207 -46 -102 -202 -216 -400 -293 -58 -22 -106 -42 -108 -43 -1 -2 6
-38 15 -82 27 -123 24 -328 -5 -421 -25 -80 -71 -147 -121 -177 -132 -77 -344
-7 -575 190 l-66 55 -67 -57 c-261 -221 -512 -280 -634 -147 -35 37 -63 95
-80 163 -17 73 -15 264 5 365 9 44 16 87 16 95 0 10 -29 25 -83 44 -211 74
-376 194 -429 312 -59 135 5 264 190 385 65 43 232 116 305 134 19 5 26 12 23
24 -46 152 -51 386 -11 518 23 75 94 151 160 168 64 17 77 17 156 1z m-1801
-11 c53 -27 84 -80 88 -149 3 -54 0 -66 -26 -107 -96 -149 -332 -83 -332 93 0
53 18 105 43 127 15 11 18 10 28 -15 6 -16 15 -56 19 -89 7 -46 15 -65 35 -82
34 -30 77 -29 112 1 26 22 28 30 26 88 0 35 -8 82 -16 106 -17 48 -17 47 23
27z m26 -567 c129 -114 54 -318 -116 -318 -101 0 -180 76 -180 172 0 53 18
106 43 127 15 11 18 10 28 -15 6 -16 15 -56 19 -88 11 -74 35 -101 89 -101 88
0 107 64 66 228 -9 36 6 35 51 -5z m-635 -19 c26 -10 70 -21 98 -25 l51 -7 0
-92 0 -92 -57 -6 c-32 -2 -83 -16 -114 -30 l-57 -25 -18 41 c-39 86 -13 281
35 261 9 -3 37 -15 62 -25z m634 -530 c47 -42 65 -78 65 -133 0 -110 -75 -186
-185 -186 -53 0 -89 16 -126 57 -40 42 -49 66 -49 126 0 53 30 120 55 121 13
1 34 -60 34 -102 1 -47 25 -87 61 -102 27 -11 37 -11 64 3 59 28 67 88 30 225
-9 31 9 28 51 -9z m-641 -13 c34 -13 82 -27 109 -31 l47 -7 0 -88 c0 -95 -3
-100 -61 -100 -16 0 -59 -11 -96 -25 -64 -24 -68 -25 -81 -8 -22 31 -34 96
-29 158 4 56 29 125 44 125 4 0 34 -11 67 -24z m682 -582 c55 -93 14 -218 -83
-260 -159 -68 -315 107 -231 257 12 22 27 38 32 36 15 -5 35 -65 35 -105 2
-76 58 -122 121 -100 61 21 74 107 34 220 l-13 39 40 -23 c23 -13 51 -41 65
-64z m-661 27 c33 -11 77 -23 98 -26 l37 -6 0 -89 0 -89 -47 -7 c-27 -3 -76
-17 -111 -31 -61 -24 -64 -24 -77 -6 -8 10 -19 37 -26 61 -24 84 9 232 49 218
9 -3 44 -14 77 -25z m613 -519 c13 -8 34 -35 49 -59 53 -90 14 -211 -81 -254
-52 -24 -100 -24 -151 0 -72 33 -105 86 -105 167 0 42 28 115 49 128 13 8 41
-68 41 -110 0 -65 33 -103 90 -103 86 0 111 88 65 220 -13 35 -12 37 3 32 9
-4 27 -13 40 -21z m-535 -49 l57 -6 0 -92 0 -92 -52 -7 c-28 -4 -78 -18 -112
-32 -56 -23 -61 -23 -71 -7 -40 69 -46 168 -14 243 l21 48 56 -25 c32 -14 83
-28 115 -30z m1872 -330 c77 -41 115 -105 115 -195 0 -94 -54 -169 -142 -198
-21 -6 -38 -14 -38 -17 0 -3 37 -62 83 -132 46 -69 87 -132 91 -139 6 -10 -4
-12 -45 -10 l-52 3 -87 135 -87 135 -76 3 -77 3 0 -141 0 -140 -45 0 -45 0 0
353 c0 195 3 357 7 361 5 4 87 6 183 4 156 -3 179 -5 215 -25z m2047 -100 l3
-68 53 -3 c52 -3 52 -3 52 -37 0 -34 0 -34 -52 -37 l-53 -3 -3 -153 c-3 -175
7 -229 42 -238 13 -3 34 0 46 6 26 14 30 11 33 -26 5 -70 -145 -72 -185 -1 -9
15 -14 84 -16 220 l-4 197 -39 0 c-38 0 -39 1 -39 35 0 34 1 35 40 35 l40 0 0
70 0 70 40 0 39 0 3 -67z m-3389 -68 c114 -78 99 -259 -27 -316 -79 -36 -169
-13 -222 56 -38 51 -45 134 -15 193 11 22 25 43 30 46 13 9 41 -68 41 -113 0
-93 98 -136 155 -69 25 29 27 37 21 90 -4 32 -13 76 -21 98 -8 22 -11 40 -7
40 4 0 24 -11 45 -25z m-527 -52 l54 -6 0 -92 0 -92 -51 -7 c-44 -6 -88 -20
-160 -50 -12 -5 -21 5 -38 43 -27 65 -28 146 0 210 l20 48 61 -24 c33 -14 84
-27 114 -30z m2431 33 c81 -38 143 -143 143 -243 l0 -33 -210 0 c-204 0 -210
-1 -210 -20 0 -62 71 -144 136 -156 55 -10 129 2 172 30 39 24 40 25 57 6 25
-27 14 -44 -48 -75 -197 -96 -407 28 -407 240 0 199 194 331 367 251z m604 -2
c19 -11 44 -38 56 -60 21 -37 23 -50 23 -247 l0 -208 -37 3 c-33 3 -38 7 -41
30 l-3 27 -36 -25 c-98 -66 -231 -51 -289 35 -34 51 -34 141 0 192 61 89 219
100 309 21 16 -14 17 -11 17 50 0 74 -18 106 -70 128 -50 21 -134 8 -184 -27
l-43 -31 -17 29 c-16 27 -16 28 19 54 19 15 54 33 77 41 60 19 176 13 219 -12z
m584 2 c28 -13 58 -32 67 -43 17 -19 17 -20 -6 -42 l-25 -23 -34 26 c-49 38
-120 45 -180 18 -116 -52 -144 -229 -50 -332 61 -68 163 -77 226 -20 l31 28
28 -21 c35 -26 25 -46 -40 -84 -40 -24 -58 -28 -122 -28 -85 0 -133 20 -186
77 -57 59 -69 94 -69 193 0 78 4 97 26 140 64 120 210 169 334 111z m-3105
-521 c80 -41 114 -158 71 -243 -66 -129 -256 -130 -321 -2 -34 66 -21 172 26
211 17 14 32 -21 44 -106 7 -46 15 -65 35 -82 34 -30 77 -29 112 1 26 22 28
30 26 88 0 35 -8 82 -16 106 -17 48 -17 47 23 27z m-628 -30 c29 -13 79 -27
111 -31 l57 -7 0 -185 0 -185 -41 7 c-170 27 -276 219 -208 377 12 27 23 49
24 49 2 0 27 -11 57 -25z"/>
<path d="M2699 4347 c-57 -38 -83 -117 -83 -257 0 -74 6 -148 18 -208 17 -86
20 -93 40 -88 41 10 192 34 258 41 65 7 67 8 99 54 19 25 68 87 111 137 l77
91 -32 30 c-98 92 -229 173 -329 204 -79 25 -118 24 -159 -4z"/>
<path d="M3735 4356 c-92 -29 -198 -94 -307 -188 l-57 -49 62 -72 c34 -40 84
-102 111 -138 l48 -67 67 -7 c65 -7 216 -31 257 -41 20 -5 23 0 33 47 22 103
31 240 21 320 -22 177 -96 239 -235 195z"/>
<path d="M3222 3953 c-40 -48 -72 -89 -72 -92 0 -4 65 -6 145 -6 80 0 145 3
145 7 0 6 -138 178 -144 178 -1 0 -35 -39 -74 -87z"/>
<path d="M3107 3743 l-48 -4 -60 -92 c-32 -51 -85 -142 -116 -204 l-58 -111
28 -59 c38 -77 110 -202 164 -284 l43 -67 138 -6 c75 -3 182 -3 237 1 l99 8
63 100 c34 55 87 148 117 206 l55 105 -79 143 c-44 78 -98 168 -119 200 l-40
58 -68 6 c-69 7 -268 7 -356 0z m264 -194 c89 -27 149 -112 149 -212 0 -136
-92 -229 -225 -229 -132 0 -228 97 -227 230 1 156 147 257 303 211z"/>
<path d="M2775 3703 c-43 -8 -81 -16 -84 -19 -6 -5 33 -129 58 -184 l17 -39
34 62 c19 34 51 90 72 125 21 34 38 65 38 67 0 8 -50 4 -135 -12z"/>
<path d="M3680 3715 c0 -2 20 -37 43 -77 24 -40 57 -97 74 -126 l30 -53 36 98
c20 54 38 104 39 112 2 11 -20 19 -87 33 -91 17 -135 22 -135 13z"/>
<path d="M2495 3631 c-192 -65 -331 -161 -370 -254 -23 -57 -7 -105 59 -171
65 -64 143 -113 256 -159 134 -54 135 -54 149 -4 7 23 35 97 63 165 l49 122
-55 139 c-31 77 -56 145 -56 153 -1 35 -15 36 -95 9z"/>
<path d="M3995 3598 c-10 -29 -37 -101 -62 -159 l-44 -106 32 -74 c18 -41 47
-112 64 -159 38 -100 38 -100 160 -51 158 64 280 154 320 237 15 31 16 43 5
77 -16 53 -96 133 -185 182 -73 41 -228 104 -257 105 -11 0 -22 -17 -33 -52z"/>
<path d="M2751 3168 c-7 -18 -25 -70 -41 -114 l-28 -82 57 -11 c31 -6 84 -14
119 -17 l63 -7 -49 79 c-27 44 -61 103 -76 132 -14 28 -28 52 -29 52 -1 0 -8
-15 -16 -32z"/>
<path d="M3751 3074 c-39 -70 -70 -129 -67 -132 9 -8 226 30 226 40 0 13 -71
202 -79 211 -4 4 -40 -49 -80 -119z"/>
<path d="M2641 2818 c-50 -229 -30 -438 45 -497 89 -70 286 2 494 181 l43 38
-49 57 c-28 32 -78 95 -113 139 l-62 82 -72 6 c-77 7 -238 33 -261 42 -10 4
-17 -9 -25 -48z"/>
<path d="M3880 2859 c-34 -8 -248 -39 -273 -39 -7 0 -47 -46 -90 -102 -42 -57
-91 -120 -109 -140 l-31 -38 44 -40 c67 -61 211 -155 272 -178 130 -49 202
-35 244 48 35 68 46 150 39 275 -7 132 -25 219 -46 221 -8 1 -31 -2 -50 -7z"/>
<path d="M3150 2803 c0 -12 139 -173 149 -173 10 0 75 74 125 143 l28 37 -151
0 c-83 0 -151 -3 -151 -7z"/>
<path d="M2090 1680 l0 -140 115 0 c124 0 151 7 194 53 32 35 39 102 16 151
-29 60 -72 76 -210 76 l-115 0 0 -140z"/>
<path d="M2809 1638 c-48 -13 -97 -64 -114 -122 l-14 -46 174 0 c169 0 175 1
175 20 0 27 -32 90 -58 113 -22 20 -87 47 -112 46 -8 -1 -31 -5 -51 -11z"/>
<path d="M3364 1436 c-17 -8 -39 -24 -48 -37 -20 -30 -21 -98 0 -127 45 -65
167 -70 232 -10 17 17 22 32 22 73 0 41 -5 56 -22 72 -46 41 -126 54 -184 29z"/>
</g>
</svg>
